<?xml version="1.0" encoding="UTF-8" standalone="no"?>
<svg
   width="512"
   height="512"
   version="1.1"
   viewBox="0 0 384 384"
   id="svg1499"
   sodipodi:docname="arrow-down.svg"
   inkscape:version="1.2.1 (9c6d41e410, 2022-07-14)"
   xmlns:inkscape="http://www.inkscape.org/namespaces/inkscape"
   xmlns:sodipodi="http://sodipodi.sourceforge.net/DTD/sodipodi-0.dtd"
   xmlns="http://www.w3.org/2000/svg"
   xmlns:svg="http://www.w3.org/2000/svg">
  <sodipodi:namedview
     id="namedview1501"
     pagecolor="#ffffff"
     bordercolor="#000000"
     borderopacity="0.25"
     inkscape:showpageshadow="2"
     inkscape:pageopacity="0.0"
     inkscape:pagecheckerboard="0"
     inkscape:deskcolor="#d1d1d1"
     inkscape:document-units="pt"
     showgrid="false"
     inkscape:zoom="0.83785714"
     inkscape:cx="256.01023"
     inkscape:cy="255.41347"
     inkscape:window-width="1920"
     inkscape:window-height="1043"
     inkscape:window-x="0"
     inkscape:window-y="0"
     inkscape:window-maximized="1"
     inkscape:current-layer="svg1499" />
  <defs
     id="defs1421">
    <symbol
       id="f"
       overflow="visible">
      <path
         d="m 28.422,-1.7031 c -1.4688,0.76172 -3,1.3359 -4.5938,1.7188 -1.5859,0.38281 -3.2344,0.57812 -4.9531,0.57812 -5.1562,0 -9.2422,-1.4375 -12.25,-4.3125 -3.0117,-2.875 -4.5156,-6.7812 -4.5156,-11.719 0,-4.9378 1.5039,-8.8438 4.5156,-11.719 3.0078,-2.8828 7.0938,-4.3281 12.25,-4.3281 1.7188,0 3.3672,0.19531 4.9531,0.57812 1.5938,0.38672 3.125,0.96094 4.5938,1.7188 v 6.4062 c -1.4805,-1.0078 -2.9375,-1.75 -4.375,-2.2188 -1.4375,-0.4688 -2.9492,-0.70312 -4.5312,-0.70312 -2.8438,0 -5.0859,0.91406 -6.7188,2.7344 -1.625,1.8242 -2.4375,4.3359 -2.4375,7.5312 0,3.1992 0.8125,5.7109 2.4375,7.5312 1.6328,1.8242 3.875,2.7344 6.7188,2.7344 1.582,0 3.0938,-0.23438 4.5312,-0.70312 1.4375,-0.47656 2.8945,-1.2188 4.375,-2.2188 z"
         id="path1370" />
    </symbol>
    <symbol
       id="d"
       overflow="visible">
      <path
         d="m 20.797,-16.875 c -0.64844,-0.3125 -1.293,-0.53516 -1.9375,-0.67188 -0.64844,-0.14453 -1.293,-0.21875 -1.9375,-0.21875 -1.9062,0 -3.375,0.60938 -4.4062,1.8281 -1.0234,1.2188 -1.5312,2.9688 -1.5312,5.25 V 4.7e-4 H 3.5627 v -23.203 h 7.4219 v 3.8125 c 0.94531,-1.5195 2.0352,-2.6289 3.2656,-3.3281 1.2383,-0.69531 2.7227,-1.0469 4.4531,-1.0469 0.25,0 0.51953,0.01172 0.8125,0.03125 0.28906,0.02344 0.71094,0.07031 1.2656,0.14062 z"
         id="path1373" />
    </symbol>
    <symbol
       id="b"
       overflow="visible">
      <path
         d="m 26.719,-11.656 v 2.1094 H 9.391 c 0.17578,1.7422 0.80078,3.0469 1.875,3.9219 1.082,0.86719 2.5859,1.2969 4.5156,1.2969 1.5625,0 3.1602,-0.22656 4.7969,-0.6875 1.6328,-0.46875 3.3164,-1.1719 5.0469,-2.1094 v 5.7188 c -1.75,0.65625 -3.5078,1.1523 -5.2656,1.4844 -1.75,0.34375 -3.5078,0.51562 -5.2656,0.51562 -4.1992,0 -7.4609,-1.0625 -9.7812,-3.1875 -2.3242,-2.1328 -3.4844,-5.1289 -3.4844,-8.9844 0,-3.7812 1.1406,-6.7539 3.4219,-8.9219 2.2812,-2.1758 5.4258,-3.2656 9.4375,-3.2656 3.6445,0 6.5625,1.1016 8.75,3.2969 2.1875,2.1992 3.2812,5.1367 3.2812,8.8125 z m -7.625,-2.4688 c 0,-1.4062 -0.41406,-2.5391 -1.2344,-3.4062 -0.8125,-0.86328 -1.8867,-1.2969 -3.2188,-1.2969 -1.4375,0 -2.6055,0.40625 -3.5,1.2188 -0.89844,0.80469 -1.4531,1.9648 -1.6719,3.4844 z"
         id="path1376" />
    </symbol>
    <symbol
       id="c"
       overflow="visible">
      <path
         d="m 13.969,-10.438 c -1.5547,0 -2.7188,0.26562 -3.5,0.79688 -0.78125,0.52344 -1.1719,1.293 -1.1719,2.3125 0,0.9375 0.3125,1.6719 0.9375,2.2031 0.63281,0.53125 1.5078,0.79688 2.625,0.79688 1.3945,0 2.5664,-0.5 3.5156,-1.5 0.95703,-1 1.4375,-2.2539 1.4375,-3.7656 v -0.84375 z m 11.328,-2.7969 V -9e-4 h -7.4844 v -3.4375 c -0.99219,1.4062 -2.1094,2.4336 -3.3594,3.0781 -1.2422,0.63281 -2.75,0.95312 -4.5312,0.95312 -2.4062,0 -4.3594,-0.69531 -5.8594,-2.0938 -1.4922,-1.4062 -2.2344,-3.2227 -2.2344,-5.4531 0,-2.7266 0.92969,-4.7266 2.7969,-6 1.875,-1.2695 4.8125,-1.9062 8.8125,-1.9062 h 4.375 v -0.57812 c 0,-1.1641 -0.46484,-2.0195 -1.3906,-2.5625 -0.92969,-0.55078 -2.3711,-0.82812 -4.3281,-0.82812 -1.5859,0 -3.0625,0.16406 -4.4375,0.48438 -1.3672,0.3125 -2.6328,0.78906 -3.7969,1.4219 v -5.6562 c 1.582,-0.38281 3.1758,-0.67578 4.7812,-0.875 1.6016,-0.20703 3.2031,-0.3125 4.7969,-0.3125 4.1875,0 7.207,0.82812 9.0625,2.4844 1.8633,1.6484 2.7969,4.3281 2.7969,8.0469 z"
         id="path1379" />
    </symbol>
    <symbol
       id="a"
       overflow="visible">
      <path
         d="m 11.656,-29.781 v 6.5781 h 7.6562 v 5.3125 H 11.656 v 9.8281 c 0,1.0859 0.21094,1.8203 0.64062,2.2031 0.4375,0.375 1.2891,0.5625 2.5625,0.5625 h 3.7969 V 2e-4 h -6.3594 c -2.9297,0 -5,-0.60938 -6.2188,-1.8281 -1.2188,-1.2266 -1.8281,-3.3047 -1.8281,-6.2344 v -9.8281 h -3.6875 v -5.3125 h 3.6875 v -6.5781 z"
         id="path1382" />
    </symbol>
    <symbol
       id="j"
       overflow="visible">
      <path
         d="m 19.344,-19.797 v -12.438 h 7.4531 V -0.001 H 19.344 v -3.3594 c -1.0234,1.3672 -2.1484,2.3672 -3.375,3 -1.2305,0.63281 -2.6523,0.95312 -4.2656,0.95312 -2.8555,0 -5.2031,-1.1328 -7.0469,-3.4062 -1.8359,-2.2695 -2.75,-5.1914 -2.75,-8.7656 0,-3.5703 0.91406,-6.4922 2.75,-8.7656 1.8438,-2.2812 4.1914,-3.4219 7.0469,-3.4219 1.6016,0 3.0195,0.32422 4.25,0.96875 1.2383,0.64844 2.3672,1.6484 3.3906,3 z m -4.8906,15.016 c 1.5938,0 2.8047,-0.57812 3.6406,-1.7344 0.83203,-1.1641 1.25,-2.8516 1.25,-5.0625 0,-2.207 -0.41797,-3.8906 -1.25,-5.0469 -0.83594,-1.1641 -2.0469,-1.75 -3.6406,-1.75 -1.5742,0 -2.7773,0.58594 -3.6094,1.75 -0.83594,1.1562 -1.25,2.8398 -1.25,5.0469 0,2.2109 0.41406,3.8984 1.25,5.0625 0.83203,1.1562 2.0352,1.7344 3.6094,1.7344 z"
         id="path1385" />
    </symbol>
    <symbol
       id="i"
       overflow="visible">
      <path
         d="m 15.906,-4.7812 c 1.5938,0 2.8047,-0.57812 3.6406,-1.7344 0.83203,-1.1641 1.25,-2.8516 1.25,-5.0625 0,-2.207 -0.41797,-3.8906 -1.25,-5.0469 -0.83594,-1.1641 -2.0469,-1.75 -3.6406,-1.75 -1.5859,0 -2.8047,0.58594 -3.6562,1.75 -0.84375,1.168 -1.2656,2.8516 -1.2656,5.0469 0,2.1992 0.42188,3.8828 1.2656,5.0469 0.85156,1.168 2.0703,1.75 3.6562,1.75 z m -4.9219,-15.016 c 1.0195,-1.3516 2.1484,-2.3516 3.3906,-3 1.2383,-0.64453 2.6641,-0.96875 4.2812,-0.96875 2.8633,0 5.2109,1.1406 7.0469,3.4219 1.832,2.2734 2.75,5.1953 2.75,8.7656 0,3.5742 -0.91797,6.4961 -2.75,8.7656 -1.8359,2.2734 -4.1836,3.4062 -7.0469,3.4062 -1.6172,0 -3.043,-0.32031 -4.2812,-0.95312 -1.2422,-0.64453 -2.3711,-1.6445 -3.3906,-3 v 3.3594 H 3.5622 v -32.234 h 7.4219 z"
         id="path1388" />
    </symbol>
    <symbol
       id="h"
       overflow="visible">
      <path
         d="m 0.51562,-23.203 h 7.4219 l 6.2344,15.75 5.2969,-15.75 h 7.4219 l -9.7656,25.406 c -0.98047,2.5703 -2.1211,4.375 -3.4219,5.4062 -1.3047,1.0312 -3.0273,1.5469 -5.1719,1.5469 h -4.2812 v -4.875 h 2.3125 c 1.2578,0 2.1758,-0.19922 2.75,-0.59375 0.57031,-0.39844 1.0156,-1.1172 1.3281,-2.1562 l 0.21875,-0.64062 z"
         id="path1391" />
    </symbol>
    <symbol
       id="g"
       overflow="visible">
      <path
         d="m 3.5625,-23.203 h 7.4219 V 0 H 3.5625 Z m 0,-9.0312 h 7.4219 v 6.0469 H 3.5625 Z"
         id="path1394" />
    </symbol>
    <symbol
       id="q"
       overflow="visible">
      <path
         d="m 0.64062,-23.203 h 7.4219 l 5.7812,16.031 5.75,-16.031 h 7.4375 L 17.89062,0 h -8.1406 z"
         id="path1397" />
    </symbol>
    <symbol
       id="p"
       overflow="visible">
      <path
         d="m 25.422,-29.953 v 6.5469 c -1.6992,-0.75781 -3.3594,-1.332 -4.9844,-1.7188 -1.6172,-0.38281 -3.1406,-0.57812 -4.5781,-0.57812 -1.8984,0 -3.3047,0.26562 -4.2188,0.79688 -0.90625,0.52344 -1.3594,1.3359 -1.3594,2.4375 0,0.82422 0.30469,1.4688 0.92188,1.9375 0.61328,0.46094 1.7266,0.85547 3.3438,1.1875 l 3.3906,0.6875 c 3.4375,0.6875 5.8789,1.7344 7.3281,3.1406 1.457,1.4062 2.1875,3.4141 2.1875,6.0156 0,3.4062 -1.0156,5.9453 -3.0469,7.6094 -2.0234,1.6562 -5.1094,2.4844 -9.2656,2.4844 -1.9609,0 -3.9297,-0.1875 -5.9062,-0.5625 -1.9688,-0.36328 -3.9453,-0.91016 -5.9219,-1.6406 v -6.7344 c 1.9766,1.0547 3.8906,1.8438 5.7344,2.375 1.8438,0.5312 3.6172,0.79688 5.3281,0.79688 1.7383,0 3.0703,-0.28906 4,-0.875 0.92578,-0.58203 1.3906,-1.4102 1.3906,-2.4844 0,-0.96875 -0.32031,-1.7109 -0.95312,-2.2344 -0.625,-0.53125 -1.875,-1.0039 -3.75,-1.4219 l -3.0938,-0.67188 c -3.0938,-0.66406 -5.3555,-1.7227 -6.7812,-3.1719 -1.4297,-1.4453 -2.1406,-3.3984 -2.1406,-5.8594 0,-3.082 0.99219,-5.4531 2.9844,-7.1094 1.9883,-1.6562 4.8477,-2.4844 8.5781,-2.4844 1.6953,0 3.4414,0.13281 5.2344,0.39062 1.7891,0.25 3.6484,0.63281 5.5781,1.1406 z"
         id="path1400" />
    </symbol>
    <symbol
       id="e"
       overflow="visible">
      <path
         d="m 3.5625,-32.234 h 7.4219 V 0 H 3.5625 Z"
         id="path1403" />
    </symbol>
    <symbol
       id="o"
       overflow="visible">
      <path
         d="m 18.828,-32.234 v 4.875 h -4.0938 c -1.0547,0 -1.7891,0.19531 -2.2031,0.57812 -0.41797,0.375 -0.625,1.0312 -0.625,1.9688 v 1.6094 h 6.3438 v 5.3125 H 11.9061 V 8.2e-4 H 4.4999 v -17.891 H 0.8124 v -5.3125 h 3.6875 v -1.6094 c 0,-2.5312 0.70312,-4.3984 2.1094,-5.6094 1.4062,-1.207 3.5859,-1.8125 6.5469,-1.8125 z"
         id="path1406" />
    </symbol>
    <symbol
       id="n"
       overflow="visible">
      <path
         d="M 26.891,-14.125 V 0 h -7.4688 v -10.766 c 0,-2.0312 -0.04687,-3.4258 -0.14062,-4.1875 -0.08594,-0.75781 -0.23438,-1.3203 -0.45312,-1.6875 -0.29297,-0.47656 -0.6875,-0.85156 -1.1875,-1.125 -0.49219,-0.26953 -1.0547,-0.40625 -1.6875,-0.40625 -1.5547,0 -2.7734,0.60156 -3.6562,1.7969 -0.875,1.1992 -1.3125,2.8555 -1.3125,4.9688 v 11.406 h -7.4219 v -32.234 h 7.4219 v 12.438 c 1.1133,-1.3516 2.2969,-2.3516 3.5469,-3 1.2578,-0.64453 2.6484,-0.96875 4.1719,-0.96875 2.6758,0 4.707,0.82422 6.0938,2.4688 1.3945,1.6484 2.0938,4.0391 2.0938,7.1719 z"
         id="path1409" />
    </symbol>
    <symbol
       id="m"
       overflow="visible">
      <path
         d="m 3.8906,-30.922 h 8.9062 l 11.25,21.203 v -21.203 h 7.5625 V 0 h -8.9062 l -11.25,-21.219 V 0 H 3.8906 Z"
         id="path1412" />
    </symbol>
    <symbol
       id="l"
       overflow="visible">
      <path
         d="m 3.8906,-30.922 h 13.234 c 3.9375,0 6.957,0.875 9.0625,2.625 2.1016,1.7422 3.1562,4.2266 3.1562,7.4531 0,3.25 -1.0547,5.75 -3.1562,7.5 -2.1055,1.7422 -5.125,2.6094 -9.0625,2.6094 h -5.25 V -5e-4 H 3.8902 Z m 7.9844,5.7812 v 8.625 h 4.4062 c 1.5391,0 2.7344,-0.375 3.5781,-1.125 0.8437,-0.75 1.2656,-1.8164 1.2656,-3.2031 0,-1.375 -0.42188,-2.4297 -1.2656,-3.1719 -0.84375,-0.75 -2.0391,-1.125 -3.5781,-1.125 z"
         id="path1415" />
    </symbol>
    <symbol
       id="k"
       overflow="visible">
      <path
         d="m 3.5625,-23.203 h 7.4219 v 22.781 c 0,3.1133 -0.75,5.4883 -2.25,7.125 C 7.2422,8.3358 5.0821,9.1561 2.25,9.1561 h -3.6562 v -4.875 h 1.2812 c 1.4062,0 2.3672,-0.32031 2.8906,-0.95312 0.53125,-0.63672 0.79688,-1.8867 0.79688,-3.75 z m 0,-9.0312 h 7.4219 v 6.0469 H 3.5625 Z"
         id="path1418" />
    </symbol>
  </defs>
  <path
     d="m 208.40928,40.73938 c 1.2891,-0.0352 2.5977,-0.0586 3.8867,-0.10156 l -1.9922,1.9922 z"
     id="path2178"
     style="fill:#ffb8ff;fill-opacity:1" />
  <path
     d="m 191.97528,42.63388 -1.418,-1.418 c 0.97656,-0.0156 1.9336,-0.0508 2.9102,-0.0781 z"
     id="path2176"
     style="fill:#ffb8ff;fill-opacity:1" />
  <path
     d="m 199.26438,41.34088 c 0.10156,-0.10156 0.0781,-0.24609 0.15234,-0.36328 1.0508,-0.0273 2.1055,-0.0586 3.1484,-0.0859 l 4.7344,4.7344 -5.5508,5.5508 c -0.23828,0.23828 -0.25391,0.55859 -0.35547,0.86719 l -6.4141,-6.4141 z"
     id="path2174"
     style="fill:#ffb8ff;fill-opacity:1" />
  <path
     d="m 233.60838,40.07138 -1.1211,1.1211 -1.0625,-1.0625 c 0.73438,-0.0273 1.457,-0.043 2.1836,-0.0586 z"
     id="path2172"
     style="fill:#ffb8ff;fill-opacity:1" />
  <path
     d="m 147.43638,40.43466 c 9.4609,0.93359 11.301,1.2734 37.23,0.84766 0.0156,0.0156 0.008,0.043 0.0273,0.0508 l 4.2852,4.2852 -0.375,0.375 c -0.83203,0.83203 -0.83203,2.1719 0,3.0039 0.83203,0.83203 2.1719,0.83203 3.0039,0 l 0.375,-0.375 9.9688,9.9688 c 0.83203,0.83203 2.1719,0.83203 3.0039,0 0.41406,-0.41406 0.62109,-0.94922 0.62109,-1.5 0,-0.54297 -0.20312,-1.0859 -0.62109,-1.5 l -1.0625,-1.0625 c 0.29688,-0.10156 0.62891,-0.11719 0.86719,-0.35547 l 5.5508,-5.5586 9.6992,9.6992 c 0.83203,0.83203 2.1719,0.83203 3.0039,0 0.41406,-0.41406 0.62109,-0.95703 0.62109,-1.5 0,-0.55078 -0.20312,-1.0859 -0.62109,-1.5 l -9.6992,-9.6992 3.3164,-3.3164 c 0.41406,-0.41406 0.62109,-0.94922 0.62109,-1.5 0,-0.10937 -0.10938,-0.19531 -0.12891,-0.29687 2.8242,-0.0859 5.6406,-0.14453 8.4688,-0.23047 l 3.9023,3.9023 -6.1172,6.1172 c -0.83203,0.83203 -0.83203,2.1719 0,2.9961 0.83203,0.83203 2.1719,0.83203 2.9961,0 l 6.1172,-6.1094 11.445,11.457 c 0.83203,0.83203 2.1719,0.83203 3.0039,0 0.41406,-0.41406 0.62109,-0.94922 0.62109,-1.5 0,-0.53516 -0.20312,-1.0859 -0.62109,-1.5 l -11.445,-11.445 4.2852,-4.2852 c 0.35547,-0.008 0.71094,-0.0156 1.0625,-0.0273 0.62109,-0.008 1.1797,0.008 1.7812,0 -0.16016,0.69531 -0.10938,1.418 0.43359,1.9531 l 10.555,10.555 -11.207,11.207 c -0.76172,-0.30469 -1.6211,-0.30469 -2.2383,0.3125 -0.83203,0.83203 -0.83203,2.1719 0,3.0039 l 10.555,10.555 -8.3477,8.3477 c -0.82422,0.83203 -0.83984,2.1719 0,3.0039 0.83203,0.83203 2.1719,0.83203 3.0039,0 l 8.3477,-8.3477 7.8555,7.8555 -7.375,7.375 -2.3594,-2.3594 c -0.83203,-0.83203 -2.1719,-0.83203 -2.9961,0 -0.83203,0.83203 -0.83203,2.1719 0,3.0039 l 2.7227,2.7227 c -0.0859,0.62891 0.0352,1.2734 0.51562,1.7578 0.48438,0.48438 1.1289,0.60156 1.7578,0.51562 l 6.4297,6.4297 -0.21094,1.3359 -6.8984,6.8984 c -0.83984,0.83203 -0.82422,2.1719 0,2.9961 0.83203,0.83203 2.1719,0.83203 3.0039,0 l 2.875,-2.8867 -1.8672,12.938 -9.207,-9.207 c -0.83203,-0.83203 -2.1719,-0.83203 -3.0039,0 -0.832,0.83203 -0.83203,2.1719 0,3.0039 l 10.07,10.07 -6.4062,6.4062 -2.1211,-2.1133 c -0.83203,-0.83203 -2.1719,-0.83203 -2.9961,0 -0.83203,0.83203 -0.83203,2.1719 0,2.9961 l 8.8672,8.8672 -6.5,6.5 c -0.5,0.5 -0.59375,1.1719 -0.48438,1.8242 -0.83203,-0.70312 -2.0625,-0.72266 -2.8438,0.0664 -0.83203,0.83203 -0.83203,2.1719 0,3.0039 l 6.6953,6.6953 -3.1133,3.1133 c -0.82422,0.83203 -0.83984,2.1719 0,2.9961 0.83203,0.83203 2.1719,0.83203 3.0039,0 l 0.10156,-0.10156 c -0.34766,1.3477 -0.65234,2.7227 -1.0273,4.0469 -0.74609,2.6641 1.2227,5.4062 4.082,5.4062 19.047,0 34.688,0 43.359,-0.21875 10.727,-0.25391 21.703,0.10938 25.699,9.8164 l -2.832,2.832 -7.0156,-7.0156 c -0.83203,-0.83203 -2.1719,-0.83203 -3.0039,0 -0.83203,0.83203 -0.83203,2.1719 0,3.0039 l 7.0156,7.0156 -6.0156,6.0234 -4.0117,-4.0117 c -0.83203,-0.83203 -2.1719,-0.83203 -3.0039,0 -0.83203,0.83203 -0.83203,2.1719 0,3.0039 l 4.0117,4.0117 -6.5234,6.5234 -10.027,-10.027 c -0.83203,-0.83203 -2.1719,-0.83203 -3.0039,0 -0.83203,0.83203 -0.83203,2.1719 0,3.0039 l 10.027,10.027 -8.5273,8.5273 -12.531,-12.531 c -0.83203,-0.83203 -2.1719,-0.83203 -3.0039,0 -0.83203,0.83203 -0.83203,2.1719 0,2.9961 l 3.2578,3.2578 -10.52,10.52 -3.2578,-3.2578 c -0.83203,-0.83203 -2.1719,-0.83203 -3.0039,0 -0.83203,0.83203 -0.83203,2.1719 0,2.9961 l 3.2578,3.2578 -18.93,18.93 c -0.83203,0.83203 -0.83203,2.1719 0,3.0039 0.83203,0.832 2.1719,0.83203 3.0039,0 l 18.93,-18.93 22.02,22.027 c -2.418,3.0977 -4.8438,6.1758 -7.3125,9.2305 l -8.1953,-8.1953 6.7695,-6.7617 c 0.82422,-0.82422 0.83203,-2.1641 0,-3.0039 -0.83203,-0.83203 -2.1719,-0.83203 -3.0039,0 l -6.7695,6.7617 -9.2734,-9.2734 c -0.83203,-0.83203 -2.1719,-0.83203 -3.0039,0 -0.832,0.83203 -0.83203,2.1719 0,2.9961 l 9.2969,9.2734 -9.5273,9.5273 -3.2578,-3.2578 c -0.83203,-0.83203 -2.1719,-0.83203 -3.0039,0 -0.83203,0.83203 -0.83203,2.1719 0,3.0039 l 3.2578,3.2578 -5.7695,5.7617 c -0.82422,0.83203 -0.83984,2.1719 0,3.0039 0.83203,0.83203 2.1719,0.83203 3.0039,0 l 5.7695,-5.7695 9.5273,9.5273 c -4.7266,5.4375 -9.4688,10.852 -14.375,16.137 0.21875,-0.34766 0.45703,-0.70313 0.45703,-1.1016 0,-0.54297 -0.20313,-1.0859 -0.62109,-1.5 l -5.0156,-5.0156 3.7578,-3.7578 c 0.82422,-0.82422 0.83203,-2.1641 0,-3.0039 -0.83203,-0.83203 -2.1719,-0.83203 -3.0039,0 l -3.7578,3.7578 -7.7734,-7.7617 c -0.83203,-0.83203 -2.1719,-0.83203 -3.0039,0 -0.832,0.83203 -0.83203,2.1719 0,3.0039 l 7.7891,7.7539 -11.031,11.031 -7.7734,-7.7734 c -0.19531,-0.19531 -0.46484,-0.1875 -0.71094,-0.29688 l 2.7148,-2.7148 c 0.82422,-0.82422 0.83203,-2.1641 0,-3.0039 -0.83203,-0.83203 -2.1719,-0.83203 -3.0039,0 l -23.969,23.969 c -0.83203,0.83203 -0.83203,2.1719 0,2.9961 0.83203,0.83203 2.1719,0.83203 3.0039,0 l 18.676,-18.676 c 0.10156,0.23828 0.10156,0.50781 0.29688,0.70312 l 14.379,14.418 c 0.83203,0.83203 2.1719,0.83203 3.0039,0 0.82422,-0.82422 0.83203,-2.1641 0,-3.0039 l -3.6211,-3.6211 11.031,-11.031 5.0156,5.0156 c 0.73047,0.73047 1.8164,0.70312 2.6406,0.14453 -5.7969,6.2266 -11.641,12.414 -17.676,18.402 -49,48.609 -69.289,19.805 -100.45,-18.023 -20.523,-24.91 -40.98,-49.738 -61.508,-74.547 -17.605,-21.652 -14.289,-35.629 17.293,-40.008 7.2969,-1.0352 19.863,-1.8164 36.309,-2.2734 2.7812,-0.0859 4.7109,-2.7227 3.9609,-5.4297 -2.4688,-8.4844 -3.25,-11.902 -23.02,-89.762 -10.582,-42.941 4.1914,-51.766 41.242,-48.082 z"
     id="path2170"
     style="fill:#ffb8ff;fill-opacity:1" />
  <path
     d="m 260.93638,45.05966 -4.3281,4.3281 -9.418,-9.418 c 8.1211,0.38672 11.285,2.4688 13.746,5.0898 z"
     id="path2168"
     style="fill:#ffb8ff;fill-opacity:1" />
  <path
     d="m 266.04188,62.13766 -12.328,12.32 -8.0938,-8.0938 10.988,-10.988 3.9453,3.9453 c 0.83203,0.83203 2.1719,0.83203 3.0039,0 0.41406,-0.41406 0.62109,-0.94922 0.62109,-1.5 0,-0.54297 -0.20312,-1.0859 -0.62109,-1.5 l -3.9453,-3.9453 3.8164,-3.8164 c 1.9531,3.8203 2.6055,8.5977 2.6133,13.578 z"
     id="path2166"
     style="fill:#ffb8ff;fill-opacity:1" />
  <path
     d="m 97.98024,90.60676 c 19.438,76.551 19.785,78.086 21.621,84.797 -14.129,0.48438 -25.055,1.2383 -31.816,2.1875 -34.492,4.7773 -46.996,23.832 -22.68,53.785 20.551,24.836 41.008,49.66 61.523,74.566 30.004,36.449 56.957,74.227 112.97,18.641 15.859,-15.738 30.859,-32.379 45.039,-49.672 0.24609,-0.10156 0.52734,-0.10156 0.72266,-0.29688 0.35547,-0.35547 0.48438,-0.82422 0.53516,-1.2812 11.777,-14.449 23.035,-29.324 33.5,-44.672 23.809,-34.84 10.895,-55.535 -23.926,-54.734 -7.7891,0.20312 -21.188,0.21875 -37.629,0.21875 4.1836,-16.656 5.5586,-28.688 15.586,-98.059 4.2344,-29.926 -3.3438,-45.172 -32.734,-44.707 -8.3398,0.17969 -16.723,0.43359 -25.098,0.67969 -54.082,1.6055 -58.02,0.83984 -67.309,-0.0781 -43.992,-4.3672 -62.133,10.609 -50.305,58.625 z"
     id="path2142"
     style="fill:#ffb8ff;fill-opacity:1" />
  <path
     d="m 265.01458,74.89166 -1.375,9.5039 -6.9336,-6.9336 9.0352,-9.0352 c -0.18359,2.1953 -0.42969,4.3672 -0.72656,6.4648 z"
     id="path2164"
     style="fill:#ffb8ff;fill-opacity:1" />
  <path
     d="m 261.03018,102.51666 -3.8281,-3.8281 5.125,-5.125 z"
     id="path2162"
     style="fill:#ffb8ff;fill-opacity:1" />
  <path
     d="m 254.76848,145.45066 -3.1133,-3.1133 4.2266,-4.2266 c -0.37891,2.5977 -0.70703,4.7109 -1.1133,7.3398 z"
     id="path2160"
     style="fill:#ffb8ff;fill-opacity:1" />
  <path
     d="m 251.53408,163.43066 -4.3008,-4.293 c 0.60156,0.0508 1.2031,-0.0937 1.6719,-0.55078 l 4.4141,-4.4141 c -0.54688,3.0977 -1.1484,6.1875 -1.7852,9.2578 z"
     id="path2158"
     style="fill:#ffb8ff;fill-opacity:1" />
  <path
     d="m 318.37808,214.31366 c 0.12891,-0.6875 0.24609,-1.1367 -0.47656,-1.8594 l -5.3867,-5.3867 6.1094,-6.1094 c 0.83203,0.58594 1.9414,0.60938 2.6914,-0.12891 0.41406,-0.41406 0.62109,-0.94922 0.62109,-1.5 0,-0.43359 -0.23047,-0.82422 -0.49219,-1.1875 l 1.1133,-1.1133 c 0.71484,6.2578 -1.1602,11.68 -4.1797,17.285 z"
     id="path2156"
     style="fill:#ffb8ff;fill-opacity:1" />
  <path
     d="m 97.98024,90.60676 c 19.438,76.551 19.785,78.086 21.621,84.797 -14.129,0.48438 -25.055,1.2383 -31.816,2.1875 -34.492,4.7773 -46.996,23.832 -22.68,53.785 20.551,24.836 41.008,49.66 61.523,74.566 30.004,36.449 56.957,74.227 112.97,18.641 15.859,-15.738 30.859,-32.379 45.039,-49.672 0.24609,-0.10156 0.52734,-0.10156 0.72266,-0.29688 0.35547,-0.35547 0.48438,-0.82422 0.53516,-1.2812 11.777,-14.449 23.035,-29.324 33.5,-44.672 23.809,-34.84 10.895,-55.535 -23.926,-54.734 -7.7891,0.20312 -21.188,0.21875 -37.629,0.21875 4.1836,-16.656 5.5586,-28.688 15.586,-98.059 4.2344,-29.926 -3.3438,-45.172 -32.734,-44.707 -8.3398,0.17969 -16.723,0.43359 -25.098,0.67969 -54.082,1.6055 -58.02,0.83984 -67.309,-0.0781 -43.992,-4.3672 -62.133,10.609 -50.305,58.625 z m 171,189.68 -9.3242,-9.3242 9.5273,-9.5273 8.543,8.543 c -2.8672,3.4844 -5.8125,6.8867 -8.7461,10.309 z m 43.398,-56.41 c -7.0078,10.273 -14.426,20.297 -22.035,30.172 l -12.395,-12.406 10.52,-10.531 5.0156,5.0156 -6.2695,6.2812 c -0.83203,0.83203 -0.83203,2.1719 0,2.9961 0.83203,0.83203 2.1719,0.83203 3.0039,0 l 6.6016,-6.6016 c 0.67188,0.12891 1.3477,0.0508 1.8672,-0.46484 0.41406,-0.41406 0.62109,-0.94922 0.62109,-1.5 0,-0.13672 -0.12891,-0.23828 -0.15234,-0.36328 l 9.5625,-9.5625 c 0.39844,-0.0781 0.80469,-0.15234 1.1211,-0.46484 0.30469,-0.30469 0.38281,-0.72266 0.46484,-1.1211 l 3.3516,-3.3516 c -0.42969,0.62891 -0.83594,1.2656 -1.2773,1.9023 z m -37.434,14.773 -6.2773,-6.2773 10.52,-10.531 6.2773,6.2773 z m 25.055,-19.047 5.0156,5.0156 -8.5273,8.5273 -5.0156,-5.0156 z m 17.664,-4.0391 c -0.83984,1.4688 -1.7227,2.9375 -2.6719,4.3945 0.39844,-2.2812 -2.1211,-3.207 -3.4805,-1.8398 l -3.5117,3.5039 -5.0156,-5.0156 6.5156,-6.5234 5.3867,5.3867 c 0.77734,0.75391 1.9492,0.73828 2.7773,0.0937 z m 0.71484,-1.25 c 0.12891,-0.6875 0.24609,-1.1367 -0.47656,-1.8594 l -5.3867,-5.3867 6.1094,-6.1094 c 0.83203,0.58594 1.9414,0.60938 2.6914,-0.12891 0.41406,-0.41406 0.62109,-0.94922 0.62109,-1.5 0,-0.43359 -0.23047,-0.82422 -0.49219,-1.1875 l 1.1133,-1.1133 c 0.71484,6.2578 -1.1602,11.68 -4.1797,17.285 z m -66.844,-50.883 -4.3008,-4.293 c 0.60156,0.0508 1.2031,-0.0937 1.6719,-0.55078 l 4.4141,-4.4141 c -0.54688,3.0977 -1.1484,6.1875 -1.7852,9.2578 z m 3.2344,-17.98 -3.1133,-3.1133 4.2266,-4.2266 c -0.37891,2.5977 -0.70703,4.7109 -1.1133,7.3398 z m 6.2617,-42.934 -3.8281,-3.8281 5.125,-5.125 z m 3.9844,-27.625 -1.375,9.5039 -6.9336,-6.9336 9.0352,-9.0352 c -0.18359,2.1953 -0.42969,4.3672 -0.72656,6.4648 z m 1.0273,-12.754 -12.328,12.32 -8.0938,-8.0938 10.988,-10.988 3.9453,3.9453 c 0.83203,0.83203 2.1719,0.83203 3.0039,0 0.41406,-0.41406 0.62109,-0.94922 0.62109,-1.5 0,-0.54297 -0.20312,-1.0859 -0.62109,-1.5 l -3.9453,-3.9453 3.8164,-3.8164 c 1.9531,3.8203 2.6055,8.5977 2.6133,13.578 z m -5.1055,-17.078 -4.3281,4.3281 -9.418,-9.418 c 8.1211,0.38672 11.285,2.4688 13.746,5.0898 z m -113.5,-4.625 c 9.4609,0.93359 11.301,1.2734 37.23,0.84766 0.0156,0.0156 0.008,0.043 0.0273,0.0508 l 4.2852,4.2852 -0.375,0.375 c -0.83203,0.83203 -0.83203,2.1719 0,3.0039 0.83203,0.83203 2.1719,0.83203 3.0039,0 l 0.375,-0.375 9.9688,9.9688 c 0.83203,0.83203 2.1719,0.83203 3.0039,0 0.41406,-0.41406 0.62109,-0.94922 0.62109,-1.5 0,-0.54297 -0.20312,-1.0859 -0.62109,-1.5 l -1.0625,-1.0625 c 0.29688,-0.10156 0.62891,-0.11719 0.86719,-0.35547 l 5.5508,-5.5586 9.6992,9.6992 c 0.83203,0.83203 2.1719,0.83203 3.0039,0 0.41406,-0.41406 0.62109,-0.95703 0.62109,-1.5 0,-0.55078 -0.20312,-1.0859 -0.62109,-1.5 l -9.6992,-9.6992 3.3164,-3.3164 c 0.41406,-0.41406 0.62109,-0.94922 0.62109,-1.5 0,-0.10937 -0.10938,-0.19531 -0.12891,-0.29687 2.8242,-0.0859 5.6406,-0.14453 8.4688,-0.23047 l 3.9023,3.9023 -6.1172,6.1172 c -0.83203,0.83203 -0.83203,2.1719 0,2.9961 0.83203,0.83203 2.1719,0.83203 2.9961,0 l 6.1172,-6.1094 11.445,11.457 c 0.83203,0.83203 2.1719,0.83203 3.0039,0 0.41406,-0.41406 0.62109,-0.94922 0.62109,-1.5 0,-0.53516 -0.20312,-1.0859 -0.62109,-1.5 l -11.445,-11.445 4.2852,-4.2852 c 0.35547,-0.008 0.71094,-0.0156 1.0625,-0.0273 0.62109,-0.008 1.1797,0.008 1.7812,0 -0.16016,0.69531 -0.10938,1.418 0.43359,1.9531 l 10.555,10.555 -11.207,11.207 c -0.76172,-0.30469 -1.6211,-0.30469 -2.2383,0.3125 -0.83203,0.83203 -0.83203,2.1719 0,3.0039 l 10.555,10.555 -8.3477,8.3477 c -0.82422,0.83203 -0.83984,2.1719 0,3.0039 0.83203,0.83203 2.1719,0.83203 3.0039,0 l 8.3477,-8.3477 7.8555,7.8555 -7.375,7.375 -2.3594,-2.3594 c -0.83203,-0.83203 -2.1719,-0.83203 -2.9961,0 -0.83203,0.83203 -0.83203,2.1719 0,3.0039 l 2.7227,2.7227 c -0.0859,0.62891 0.0352,1.2734 0.51562,1.7578 0.48438,0.48438 1.1289,0.60156 1.7578,0.51562 l 6.4297,6.4297 -0.21094,1.3359 -6.8984,6.8984 c -0.83984,0.83203 -0.82422,2.1719 0,2.9961 0.83203,0.83203 2.1719,0.83203 3.0039,0 l 2.875,-2.8867 -1.8672,12.938 -9.207,-9.207 c -0.83203,-0.83203 -2.1719,-0.83203 -3.0039,0 -0.832,0.83203 -0.83203,2.1719 0,3.0039 l 10.07,10.07 -6.4062,6.4062 -2.1211,-2.1133 c -0.83203,-0.83203 -2.1719,-0.83203 -2.9961,0 -0.83203,0.83203 -0.83203,2.1719 0,2.9961 l 8.8672,8.8672 -6.5,6.5 c -0.5,0.5 -0.59375,1.1719 -0.48438,1.8242 -0.83203,-0.70312 -2.0625,-0.72266 -2.8438,0.0664 -0.83203,0.83203 -0.83203,2.1719 0,3.0039 l 6.6953,6.6953 -3.1133,3.1133 c -0.82422,0.83203 -0.83984,2.1719 0,2.9961 0.83203,0.83203 2.1719,0.83203 3.0039,0 l 0.10156,-0.10156 c -0.34766,1.3477 -0.65234,2.7227 -1.0273,4.0469 -0.74609,2.6641 1.2227,5.4062 4.082,5.4062 19.047,0 34.688,0 43.359,-0.21875 10.727,-0.25391 21.703,0.10938 25.699,9.8164 l -2.832,2.832 -7.0156,-7.0156 c -0.83203,-0.83203 -2.1719,-0.83203 -3.0039,0 -0.83203,0.83203 -0.83203,2.1719 0,3.0039 l 7.0156,7.0156 -6.0156,6.0234 -4.0117,-4.0117 c -0.83203,-0.83203 -2.1719,-0.83203 -3.0039,0 -0.83203,0.83203 -0.83203,2.1719 0,3.0039 l 4.0117,4.0117 -6.5234,6.5234 -10.027,-10.027 c -0.83203,-0.83203 -2.1719,-0.83203 -3.0039,0 -0.83203,0.83203 -0.83203,2.1719 0,3.0039 l 10.027,10.027 -8.5273,8.5273 -12.531,-12.531 c -0.83203,-0.83203 -2.1719,-0.83203 -3.0039,0 -0.83203,0.83203 -0.83203,2.1719 0,2.9961 l 3.2578,3.2578 -10.52,10.52 -3.2578,-3.2578 c -0.83203,-0.83203 -2.1719,-0.83203 -3.0039,0 -0.83203,0.83203 -0.83203,2.1719 0,2.9961 l 3.2578,3.2578 -18.93,18.93 c -0.83203,0.83203 -0.83203,2.1719 0,3.0039 0.83203,0.832 2.1719,0.83203 3.0039,0 l 18.93,-18.93 22.02,22.027 c -2.418,3.0977 -4.8438,6.1758 -7.3125,9.2305 l -8.1953,-8.1953 6.7695,-6.7617 c 0.82422,-0.82422 0.83203,-2.1641 0,-3.0039 -0.83203,-0.83203 -2.1719,-0.83203 -3.0039,0 l -6.7695,6.7617 -9.2734,-9.2734 c -0.83203,-0.83203 -2.1719,-0.83203 -3.0039,0 -0.832,0.83203 -0.83203,2.1719 0,2.9961 l 9.2969,9.2734 -9.5273,9.5273 -3.2578,-3.2578 c -0.83203,-0.83203 -2.1719,-0.83203 -3.0039,0 -0.83203,0.83203 -0.83203,2.1719 0,3.0039 l 3.2578,3.2578 -5.7695,5.7617 c -0.82422,0.83203 -0.83984,2.1719 0,3.0039 0.83203,0.83203 2.1719,0.83203 3.0039,0 l 5.7695,-5.7695 9.5273,9.5273 c -4.7266,5.4375 -9.4688,10.852 -14.375,16.137 0.21875,-0.34766 0.45703,-0.70313 0.45703,-1.1016 0,-0.54297 -0.20313,-1.0859 -0.62109,-1.5 l -5.0156,-5.0156 3.7578,-3.7578 c 0.82422,-0.82422 0.83203,-2.1641 0,-3.0039 -0.83203,-0.83203 -2.1719,-0.83203 -3.0039,0 l -3.7578,3.7578 -7.7734,-7.7617 c -0.83203,-0.83203 -2.1719,-0.83203 -3.0039,0 -0.832,0.83203 -0.83203,2.1719 0,3.0039 l 7.7891,7.7539 -11.031,11.031 -7.7734,-7.7734 c -0.19531,-0.19531 -0.46484,-0.1875 -0.71094,-0.29688 l 2.7148,-2.7148 c 0.82422,-0.82422 0.83203,-2.1641 0,-3.0039 -0.83203,-0.83203 -2.1719,-0.83203 -3.0039,0 l -23.969,23.969 c -0.83203,0.83203 -0.83203,2.1719 0,2.9961 0.83203,0.83203 2.1719,0.83203 3.0039,0 l 18.676,-18.676 c 0.10156,0.23828 0.10156,0.50781 0.29688,0.70312 l 14.379,14.418 c 0.83203,0.83203 2.1719,0.83203 3.0039,0 0.82422,-0.82422 0.83203,-2.1641 0,-3.0039 l -3.6211,-3.6211 11.031,-11.031 5.0156,5.0156 c 0.73047,0.73047 1.8164,0.70312 2.6406,0.14453 -5.7969,6.2266 -11.641,12.414 -17.676,18.402 -49,48.609 -69.289,19.805 -100.45,-18.023 -20.523,-24.91 -40.98,-49.738 -61.508,-74.547 -17.605,-21.652 -14.289,-35.629 17.293,-40.008 7.2969,-1.0352 19.863,-1.8164 36.309,-2.2734 2.7812,-0.0859 4.7109,-2.7227 3.9609,-5.4297 -2.4688,-8.4844 -3.25,-11.902 -23.02,-89.762 -10.582,-42.941 4.1914,-51.766 41.242,-48.082 z m 86.172,-0.36328 -1.1211,1.1211 -1.0625,-1.0625 c 0.73438,-0.0273 1.457,-0.043 2.1836,-0.0586 z m -34.344,1.2695 c 0.10156,-0.10156 0.0781,-0.24609 0.15234,-0.36328 1.0508,-0.0273 2.1055,-0.0586 3.1484,-0.0859 l 4.7344,4.7344 -5.5508,5.5508 c -0.23828,0.23828 -0.25391,0.55859 -0.35547,0.86719 l -6.4141,-6.4141 z m -7.2891,1.293 -1.418,-1.418 c 0.97656,-0.0156 1.9336,-0.0508 2.9102,-0.0781 z m 16.434,-1.8945 c 1.2891,-0.0352 2.5977,-0.0586 3.8867,-0.10156 l -1.9922,1.9922 z"
     id="path1431" />
  <path
     d="m 317.66324,215.56366 c -0.83984,1.4688 -1.7227,2.9375 -2.6719,4.3945 0.39844,-2.2812 -2.1211,-3.207 -3.4805,-1.8398 l -3.5117,3.5039 -5.0156,-5.0156 6.5156,-6.5234 5.3867,5.3867 c 0.77734,0.75391 1.9492,0.73828 2.7773,0.0937 z"
     id="path2154"
     style="fill:#ffb8ff;fill-opacity:1" />
  <path
     d="m 195.78024,323.33676 c -0.36328,0.36328 -0.49219,0.83984 -0.54297,1.3086 -0.14453,0.0859 -0.33203,0.0586 -0.45703,0.1875 l -7.7734,7.7773 -4.2578,-4.2695 c -0.83203,-0.83203 -2.1719,-0.83203 -3.0039,0 -0.82422,0.82422 -0.83984,2.1641 0,2.9961 l 4.2578,4.2695 c -2.0273,2.0273 -5.2617,4.2695 -3.2656,6.2695 0.83203,0.83203 2.1719,0.83203 3.0039,0 l 3.2656,-3.2656 c 2.0273,2.0273 4.125,5.0078 6.0664,3.0625 0.83984,-0.83984 0.81641,-2.1797 0,-2.9961 l -3.0625,-3.0703 7.5273,-7.5273 9.0859,9.1055 c 0.83203,0.83203 2.1719,0.83203 3.0039,0 0.82422,-0.82422 0.83203,-2.1641 0,-2.9961 l -10.844,-10.844 c -0.83203,-0.83984 -2.1719,-0.83984 -3.0039,-0.008 z"
     id="path1433" />
  <path
     d="m 299.99924,219.60276 5.0156,5.0156 -8.5273,8.5273 -5.0156,-5.0156 z"
     id="path2152"
     style="fill:#ffb8ff;fill-opacity:1" />
  <path
     d="m 204.99024,325.13676 c -0.83203,0.83984 -0.83203,2.1797 0,3.0039 0.83203,0.83203 2.1719,0.83203 2.9961,0 l 6.5664,-6.5742 5.7266,5.7266 c 0.83203,0.83203 2.1719,0.83203 2.9961,0 0.83984,-0.83984 0.82422,-2.1797 0,-2.9961 l -5.7266,-5.7266 4.2578,-4.2578 c 0.81641,-0.81641 0.83984,-2.1641 0,-2.9961 -0.83203,-0.83203 -2.1719,-0.83203 -3.0039,0 l -4.2578,4.2578 -3.2578,-3.2578 c -0.83203,-0.83203 -2.1719,-0.83203 -3.0039,0 -0.82422,0.82422 -0.83203,2.1641 0,3.0039 l 3.2578,3.2578 z"
     id="path1435" />
  <path
     d="m 274.94424,238.64976 -6.2773,-6.2773 10.52,-10.531 6.2773,6.2773 z"
     id="path2150"
     style="fill:#ffb8ff;fill-opacity:1" />
  <path
     d="m 94.37024,225.55676 5.6523,6.4648 -1.707,1.707 c -0.83203,0.83203 -0.83203,2.1719 0,3.0039 0.83203,0.83203 2.1719,0.83203 3.0039,0 l 1.5117,-1.5117 3.582,4.0898 -1.7148,1.7148 c -0.83203,0.83203 -0.83203,2.1719 0,3.0039 0.83203,0.83203 2.1719,0.83203 2.9961,0 l 1.5117,-1.5117 3.7852,4.3281 -1.9258,1.9258 c -0.83203,0.83203 -0.83203,2.1719 0,3.0039 0.83203,0.832 2.1719,0.83203 3.0039,0 l 1.7227,-1.7227 8.8828,10.156 -2.2227,2.2227 c -0.83203,0.83203 -0.83203,2.1719 0,3.0039 0.83203,0.83203 2.1719,0.83203 3.0039,0 l 2.0273,-2.0273 7.6094,8.6953 -4.4453,4.4375 c -0.83203,0.83203 -0.83203,2.1719 0,3.0039 0.83203,0.83203 2.1719,0.83203 3.0039,0 l 4.2422,-4.2422 7.5977,8.6719 -4.3789,4.3867 c -0.83203,0.83984 -0.82422,2.1797 0,3.0039 0.83203,0.83203 2.1719,0.83203 3.0039,0 l 4.1836,-4.1836 8.9414,10.223 c 0.77344,0.875 2.1133,0.96875 3.0039,0.19531 0.88281,-0.78906 0.96875,-2.1055 0.19531,-2.9961 l -9.1289,-10.438 1.9258,-1.9258 c 0.82422,-0.82422 0.83984,-2.1641 0,-3.0039 -0.83203,-0.83203 -2.1719,-0.83203 -3.0039,0 l -1.7227,1.7227 -7.6094,-8.6953 1.3984,-1.3984 c 0.82422,-0.82422 0.83203,-2.1641 0,-3.0039 -0.83203,-0.83203 -2.1719,-0.83203 -3.0039,0 l -1.1953,1.1953 -7.6094,-8.6953 2.4766,-2.4766 c 0.82422,-0.82422 0.83203,-2.1641 0,-3.0039 -0.83203,-0.83203 -2.1719,-0.83203 -3.0039,0 l -2.2734,2.2734 -8.8828,-10.156 2.6055,-2.6055 c 0.82422,-0.82422 0.83203,-2.1641 0,-3.0039 -0.83203,-0.83203 -2.1719,-0.83203 -3.0039,0 l -2.4023,2.4023 -3.7852,-4.3281 2.2656,-2.2656 c 0.82422,-0.82422 0.83203,-2.1641 0,-2.9961 -0.83203,-0.83203 -2.1719,-0.83203 -3.0039,0 l -2.0703,2.0703 -3.582,-4.0898 2.1719,-2.1719 c 0.82422,-0.82422 0.83203,-2.1641 0,-2.9961 -0.83203,-0.83203 -2.1719,-0.83203 -3.0039,0 l -1.9688,1.9766 -5.4648,-6.2461 c -0.77344,-0.88281 -2.1133,-0.96875 -3.0039,-0.19531 -0.86328,0.78516 -0.95703,2.1172 -0.19141,3.0078 z"
     id="path1437" />
  <path
     d="m 312.37824,223.87676 c -7.0078,10.273 -14.426,20.297 -22.035,30.172 l -12.395,-12.406 10.52,-10.531 5.0156,5.0156 -6.2695,6.2812 c -0.83203,0.83203 -0.83203,2.1719 0,2.9961 0.83203,0.83203 2.1719,0.83203 3.0039,0 l 6.6016,-6.6016 c 0.67188,0.12891 1.3477,0.0508 1.8672,-0.46484 0.41406,-0.41406 0.62109,-0.94922 0.62109,-1.5 0,-0.13672 -0.12891,-0.23828 -0.15234,-0.36328 l 9.5625,-9.5625 c 0.39844,-0.0781 0.80469,-0.15234 1.1211,-0.46484 0.30469,-0.30469 0.38281,-0.72266 0.46484,-1.1211 l 3.3516,-3.3516 c -0.42969,0.62891 -0.83594,1.2656 -1.2773,1.9023 z"
     id="path2148"
     style="fill:#ffb8ff;fill-opacity:1" />
  <path
     d="m 268.98024,280.28676 -9.3242,-9.3242 9.5273,-9.5273 8.543,8.543 c -2.8672,3.4844 -5.8125,6.8867 -8.7461,10.309 z"
     id="path2146"
     style="fill:#ffb8ff;fill-opacity:1" />
</svg>
