<?xml version="1.0" encoding="UTF-8" standalone="no"?>
<!-- Created with Inkscape (http://www.inkscape.org/) -->

<svg
   width="256"
   height="256"
   viewBox="0 0 67.733332 67.733333"
   version="1.1"
   id="svg5"
   xml:space="preserve"
   inkscape:version="1.2.1 (9c6d41e410, 2022-07-14)"
   sodipodi:docname="heart.svg"
   xmlns:inkscape="http://www.inkscape.org/namespaces/inkscape"
   xmlns:sodipodi="http://sodipodi.sourceforge.net/DTD/sodipodi-0.dtd"
   xmlns="http://www.w3.org/2000/svg"
   xmlns:svg="http://www.w3.org/2000/svg"><sodipodi:namedview
     id="namedview7"
     pagecolor="#ffffff"
     bordercolor="#000000"
     borderopacity="0.25"
     inkscape:showpageshadow="2"
     inkscape:pageopacity="0.0"
     inkscape:pagecheckerboard="0"
     inkscape:deskcolor="#d1d1d1"
     inkscape:document-units="mm"
     showgrid="false"
     inkscape:zoom="2.7865881"
     inkscape:cx="141.57098"
     inkscape:cy="132.77886"
     inkscape:window-width="1920"
     inkscape:window-height="1043"
     inkscape:window-x="0"
     inkscape:window-y="0"
     inkscape:window-maximized="1"
     inkscape:current-layer="layer1" /><defs
     id="defs2"><symbol
       id="f"
       overflow="visible"><path
         d="m28.422-1.7031c-1.4688 0.76172-3 1.3359-4.5938 1.7188-1.5859 0.38281-3.2344 0.57812-4.9531 0.57812-5.1562 0-9.2422-1.4375-12.25-4.3125-3.0117-2.875-4.5156-6.7812-4.5156-11.719s1.5039-8.8438 4.5156-11.719c3.0078-2.8828 7.0938-4.3281 12.25-4.3281 1.7188 0 3.3672 0.19531 4.9531 0.57812 1.5938 0.38672 3.125 0.96094 4.5938 1.7188v6.4062c-1.4805-1.0078-2.9375-1.75-4.375-2.2188s-2.9492-0.70312-4.5312-0.70312c-2.8438 0-5.0859 0.91406-6.7188 2.7344-1.625 1.8242-2.4375 4.3359-2.4375 7.5312 0 3.1992 0.8125 5.7109 2.4375 7.5312 1.6328 1.8242 3.875 2.7344 6.7188 2.7344 1.582 0 3.0938-0.23438 4.5312-0.70312 1.4375-0.47656 2.8945-1.2188 4.375-2.2188z"
         id="path132" /></symbol><symbol
       id="d"
       overflow="visible"><path
         d="m20.797-16.875c-0.64844-0.3125-1.293-0.53516-1.9375-0.67188-0.64844-0.14453-1.293-0.21875-1.9375-0.21875-1.9062 0-3.375 0.60938-4.4062 1.8281-1.0234 1.2188-1.5312 2.9688-1.5312 5.25v10.688h-7.4219v-23.203h7.4219v3.8125c0.94531-1.5195 2.0352-2.6289 3.2656-3.3281 1.2383-0.69531 2.7227-1.0469 4.4531-1.0469 0.25 0 0.51953 0.011719 0.8125 0.03125 0.28906 0.023437 0.71094 0.070313 1.2656 0.14062z"
         id="path135" /></symbol><symbol
       id="b"
       overflow="visible"><path
         d="m26.719-11.656v2.1094h-17.328c0.17578 1.7422 0.80078 3.0469 1.875 3.9219 1.082 0.86719 2.5859 1.2969 4.5156 1.2969 1.5625 0 3.1602-0.22656 4.7969-0.6875 1.6328-0.46875 3.3164-1.1719 5.0469-2.1094v5.7188c-1.75 0.65625-3.5078 1.1523-5.2656 1.4844-1.75 0.34375-3.5078 0.51562-5.2656 0.51562-4.1992 0-7.4609-1.0625-9.7812-3.1875-2.3242-2.1328-3.4844-5.1289-3.4844-8.9844 0-3.7812 1.1406-6.7539 3.4219-8.9219 2.2812-2.1758 5.4258-3.2656 9.4375-3.2656 3.6445 0 6.5625 1.1016 8.75 3.2969 2.1875 2.1992 3.2812 5.1367 3.2812 8.8125zm-7.625-2.4688c0-1.4062-0.41406-2.5391-1.2344-3.4062-0.8125-0.86328-1.8867-1.2969-3.2188-1.2969-1.4375 0-2.6055 0.40625-3.5 1.2188-0.89844 0.80469-1.4531 1.9648-1.6719 3.4844z"
         id="path138" /></symbol><symbol
       id="c"
       overflow="visible"><path
         d="m13.969-10.438c-1.5547 0-2.7188 0.26562-3.5 0.79688-0.78125 0.52344-1.1719 1.293-1.1719 2.3125 0 0.9375 0.3125 1.6719 0.9375 2.2031 0.63281 0.53125 1.5078 0.79688 2.625 0.79688 1.3945 0 2.5664-0.5 3.5156-1.5 0.95703-1 1.4375-2.2539 1.4375-3.7656v-0.84375zm11.328-2.7969v13.234h-7.4844v-3.4375c-0.99219 1.4062-2.1094 2.4336-3.3594 3.0781-1.2422 0.63281-2.75 0.95312-4.5312 0.95312-2.4062 0-4.3594-0.69531-5.8594-2.0938-1.4922-1.4062-2.2344-3.2227-2.2344-5.4531 0-2.7266 0.92969-4.7266 2.7969-6 1.875-1.2695 4.8125-1.9062 8.8125-1.9062h4.375v-0.57812c0-1.1641-0.46484-2.0195-1.3906-2.5625-0.92969-0.55078-2.3711-0.82812-4.3281-0.82812-1.5859 0-3.0625 0.16406-4.4375 0.48438-1.3672 0.3125-2.6328 0.78906-3.7969 1.4219v-5.6562c1.582-0.38281 3.1758-0.67578 4.7812-0.875 1.6016-0.20703 3.2031-0.3125 4.7969-0.3125 4.1875 0 7.207 0.82812 9.0625 2.4844 1.8633 1.6484 2.7969 4.3281 2.7969 8.0469z"
         id="path141" /></symbol><symbol
       id="a"
       overflow="visible"><path
         d="m11.656-29.781v6.5781h7.6562v5.3125h-7.6562v9.8281c0 1.0859 0.21094 1.8203 0.64062 2.2031 0.4375 0.375 1.2891 0.5625 2.5625 0.5625h3.7969v5.2969h-6.3594c-2.9297 0-5-0.60938-6.2188-1.8281-1.2188-1.2266-1.8281-3.3047-1.8281-6.2344v-9.8281h-3.6875v-5.3125h3.6875v-6.5781z"
         id="path144" /></symbol><symbol
       id="j"
       overflow="visible"><path
         d="m19.344-19.797v-12.438h7.4531v32.234h-7.4531v-3.3594c-1.0234 1.3672-2.1484 2.3672-3.375 3-1.2305 0.63281-2.6523 0.95312-4.2656 0.95312-2.8555 0-5.2031-1.1328-7.0469-3.4062-1.8359-2.2695-2.75-5.1914-2.75-8.7656 0-3.5703 0.91406-6.4922 2.75-8.7656 1.8438-2.2812 4.1914-3.4219 7.0469-3.4219 1.6016 0 3.0195 0.32422 4.25 0.96875 1.2383 0.64844 2.3672 1.6484 3.3906 3zm-4.8906 15.016c1.5938 0 2.8047-0.57812 3.6406-1.7344 0.83203-1.1641 1.25-2.8516 1.25-5.0625 0-2.207-0.41797-3.8906-1.25-5.0469-0.83594-1.1641-2.0469-1.75-3.6406-1.75-1.5742 0-2.7773 0.58594-3.6094 1.75-0.83594 1.1562-1.25 2.8398-1.25 5.0469 0 2.2109 0.41406 3.8984 1.25 5.0625 0.83203 1.1562 2.0352 1.7344 3.6094 1.7344z"
         id="path147" /></symbol><symbol
       id="i"
       overflow="visible"><path
         d="m15.906-4.7812c1.5938 0 2.8047-0.57812 3.6406-1.7344 0.83203-1.1641 1.25-2.8516 1.25-5.0625 0-2.207-0.41797-3.8906-1.25-5.0469-0.83594-1.1641-2.0469-1.75-3.6406-1.75-1.5859 0-2.8047 0.58594-3.6562 1.75-0.84375 1.168-1.2656 2.8516-1.2656 5.0469 0 2.1992 0.42188 3.8828 1.2656 5.0469 0.85156 1.168 2.0703 1.75 3.6562 1.75zm-4.9219-15.016c1.0195-1.3516 2.1484-2.3516 3.3906-3 1.2383-0.64453 2.6641-0.96875 4.2812-0.96875 2.8633 0 5.2109 1.1406 7.0469 3.4219 1.832 2.2734 2.75 5.1953 2.75 8.7656 0 3.5742-0.91797 6.4961-2.75 8.7656-1.8359 2.2734-4.1836 3.4062-7.0469 3.4062-1.6172 0-3.043-0.32031-4.2812-0.95312-1.2422-0.64453-2.3711-1.6445-3.3906-3v3.3594h-7.4219v-32.234h7.4219z"
         id="path150" /></symbol><symbol
       id="h"
       overflow="visible"><path
         d="m0.51562-23.203h7.4219l6.2344 15.75 5.2969-15.75h7.4219l-9.7656 25.406c-0.98047 2.5703-2.1211 4.375-3.4219 5.4062-1.3047 1.0312-3.0273 1.5469-5.1719 1.5469h-4.2812v-4.875h2.3125c1.2578 0 2.1758-0.19922 2.75-0.59375 0.57031-0.39844 1.0156-1.1172 1.3281-2.1562l0.21875-0.64062z"
         id="path153" /></symbol><symbol
       id="g"
       overflow="visible"><path
         d="m3.5625-23.203h7.4219v23.203h-7.4219zm0-9.0312h7.4219v6.0469h-7.4219z"
         id="path156" /></symbol><symbol
       id="q"
       overflow="visible"><path
         d="m0.64062-23.203h7.4219l5.7812 16.031 5.75-16.031h7.4375l-9.1406 23.203h-8.1406z"
         id="path159" /></symbol><symbol
       id="p"
       overflow="visible"><path
         d="m25.422-29.953v6.5469c-1.6992-0.75781-3.3594-1.332-4.9844-1.7188-1.6172-0.38281-3.1406-0.57812-4.5781-0.57812-1.8984 0-3.3047 0.26562-4.2188 0.79688-0.90625 0.52344-1.3594 1.3359-1.3594 2.4375 0 0.82422 0.30469 1.4688 0.92188 1.9375 0.61328 0.46094 1.7266 0.85547 3.3438 1.1875l3.3906 0.6875c3.4375 0.6875 5.8789 1.7344 7.3281 3.1406 1.457 1.4062 2.1875 3.4141 2.1875 6.0156 0 3.4062-1.0156 5.9453-3.0469 7.6094-2.0234 1.6562-5.1094 2.4844-9.2656 2.4844-1.9609 0-3.9297-0.1875-5.9062-0.5625-1.9688-0.36328-3.9453-0.91016-5.9219-1.6406v-6.7344c1.9766 1.0547 3.8906 1.8438 5.7344 2.375s3.6172 0.79688 5.3281 0.79688c1.7383 0 3.0703-0.28906 4-0.875 0.92578-0.58203 1.3906-1.4102 1.3906-2.4844 0-0.96875-0.32031-1.7109-0.95312-2.2344-0.625-0.53125-1.875-1.0039-3.75-1.4219l-3.0938-0.67188c-3.0938-0.66406-5.3555-1.7227-6.7812-3.1719-1.4297-1.4453-2.1406-3.3984-2.1406-5.8594 0-3.082 0.99219-5.4531 2.9844-7.1094 1.9883-1.6562 4.8477-2.4844 8.5781-2.4844 1.6953 0 3.4414 0.13281 5.2344 0.39062 1.7891 0.25 3.6484 0.63281 5.5781 1.1406z"
         id="path162" /></symbol><symbol
       id="e"
       overflow="visible"><path
         d="m3.5625-32.234h7.4219v32.234h-7.4219z"
         id="path165" /></symbol><symbol
       id="o"
       overflow="visible"><path
         d="m18.828-32.234v4.875h-4.0938c-1.0547 0-1.7891 0.19531-2.2031 0.57812-0.41797 0.375-0.625 1.0312-0.625 1.9688v1.6094h6.3438v5.3125h-6.3438v17.891h-7.4062v-17.891h-3.6875v-5.3125h3.6875v-1.6094c0-2.5312 0.70312-4.3984 2.1094-5.6094 1.4062-1.207 3.5859-1.8125 6.5469-1.8125z"
         id="path168" /></symbol><symbol
       id="n"
       overflow="visible"><path
         d="m26.891-14.125v14.125h-7.4688v-10.766c0-2.0312-0.046875-3.4258-0.14062-4.1875-0.085938-0.75781-0.23438-1.3203-0.45312-1.6875-0.29297-0.47656-0.6875-0.85156-1.1875-1.125-0.49219-0.26953-1.0547-0.40625-1.6875-0.40625-1.5547 0-2.7734 0.60156-3.6562 1.7969-0.875 1.1992-1.3125 2.8555-1.3125 4.9688v11.406h-7.4219v-32.234h7.4219v12.438c1.1133-1.3516 2.2969-2.3516 3.5469-3 1.2578-0.64453 2.6484-0.96875 4.1719-0.96875 2.6758 0 4.707 0.82422 6.0938 2.4688 1.3945 1.6484 2.0938 4.0391 2.0938 7.1719z"
         id="path171" /></symbol><symbol
       id="m"
       overflow="visible"><path
         d="m3.8906-30.922h8.9062l11.25 21.203v-21.203h7.5625v30.922h-8.9062l-11.25-21.219v21.219h-7.5625z"
         id="path174" /></symbol><symbol
       id="l"
       overflow="visible"><path
         d="m3.8906-30.922h13.234c3.9375 0 6.957 0.875 9.0625 2.625 2.1016 1.7422 3.1562 4.2266 3.1562 7.4531 0 3.25-1.0547 5.75-3.1562 7.5-2.1055 1.7422-5.125 2.6094-9.0625 2.6094h-5.25v10.734h-7.9844zm7.9844 5.7812v8.625h4.4062c1.5391 0 2.7344-0.375 3.5781-1.125s1.2656-1.8164 1.2656-3.2031c0-1.375-0.42188-2.4297-1.2656-3.1719-0.84375-0.75-2.0391-1.125-3.5781-1.125z"
         id="path177" /></symbol><symbol
       id="k"
       overflow="visible"><path
         d="m3.5625-23.203h7.4219v22.781c0 3.1133-0.75 5.4883-2.25 7.125-1.4922 1.6328-3.6523 2.4531-6.4844 2.4531h-3.6562v-4.875h1.2812c1.4062 0 2.3672-0.32031 2.8906-0.95312 0.53125-0.63672 0.79688-1.8867 0.79688-3.75zm0-9.0312h7.4219v6.0469h-7.4219z"
         id="path180" /></symbol></defs><g
     inkscape:label="Layer 1"
     inkscape:groupmode="layer"
     id="layer1"><path
       style="fill:#000000;fill-opacity:1;stroke-width:0.109003;stroke:none;stroke-opacity:1"
       d="m 34.516764,58.788601 c -0.09325,0.924826 -0.116666,1.68399 -0.666794,1.68399 -0.276345,0 -0.485402,-0.235894 -0.461563,-0.50414 0.04173,-0.457726 0.11369,-0.904388 0.213744,-1.339103 C 34.020276,54.103974 31.26665,49.770663 28.355503,47.088096 21.33036,40.613854 9.3540752,38.102967 5.359112,28.49979 1.4073109,19.004201 8.3000153,8.0878626 19.153458,7.5395775 25.370452,7.2364166 31.648488,10.930119 34.483659,16.464645 36.710593,11.289176 41.667184,7.5702072 46.876226,7.2845102 59.832339,6.5679023 68.636522,22.200499 60.145178,34.650837 53.745059,44.031865 36.710593,49.524316 34.51636,58.788492 Z"
       id="path185" /><path
       style="fill:#ffb8ff;fill-opacity:1;stroke-width:0.109003;stroke:none;stroke-opacity:1"
       d="m 46.928079,8.2083113 c -5.1819,0.2848566 -10.104046,4.2256147 -11.967454,9.5855167 -0.06302,0.181393 -0.231207,0.304447 -0.422813,0.309984 -0.163505,0.0019 -0.366185,-0.106449 -0.440275,-0.281872 C 31.681592,12.086086 25.415656,8.1479139 19.201169,8.463805 8.931439,8.9815685 2.5335004,19.297734 6.2145346,28.14432 c 1.3706062,3.296037 3.9824304,5.849981 6.5785594,7.785658 l 1.552858,-1.552858 -0.18863,-0.18863 c -0.0907,-0.09069 -0.0907,-0.236744 0,-0.327435 0.09069,-0.09069 0.236742,-0.09069 0.327435,0 l 0.188629,0.18863 2.665453,-2.665454 c 0.09069,-0.09069 0.236744,-0.09069 0.327435,0 0.09069,0.09069 0.09069,0.236744 0,0.327435 l -0.907364,0.907364 2.042065,2.043373 1.623165,-1.623166 -3.732049,-3.732049 c -0.09069,-0.09069 -0.09069,-0.236744 0,-0.326585 0.09069,-0.09069 0.236744,-0.09069 0.327435,0 l 3.732049,3.73205 0.409612,-0.409612 c 0.09069,-0.09069 0.236744,-0.09069 0.326584,0 0.09069,0.09069 0.09069,0.236744 0,0.327434 l -0.409612,0.409612 1.174727,1.174727 c 0.09069,0.09069 0.09069,0.236744 0,0.327435 -0.08984,0.08984 -0.235894,0.09069 -0.327435,0 l -1.174726,-1.174727 -1.623166,1.623165 2.424884,2.424884 3.12403,-3.12403 c 0.09069,-0.09069 0.236744,-0.09069 0.327434,0 0.09069,0.09069 0.09069,0.236744 0,0.327435 l -3.12403,3.12403 1.240347,1.240346 1.622294,-1.622293 -0.468801,-0.468801 c -0.09069,-0.09069 -0.09069,-0.236744 0,-0.327434 0.09069,-0.09069 0.236744,-0.09069 0.327434,0 l 0.468801,0.4688 0.984004,-0.984004 c 0.09069,-0.09069 0.236744,-0.09069 0.326584,0 0.09069,0.09069 0.09069,0.236744 0,0.327435 l -0.984004,0.984004 2.195869,2.195868 1.66099,-1.66099 -2.564517,-2.563754 c -0.09069,-0.09069 -0.09069,-0.236744 0,-0.327434 0.09069,-0.09069 0.236744,-0.09069 0.327434,0 l 2.564517,2.563754 0.295071,-0.295072 c 0.09069,-0.09069 0.236744,-0.09069 0.327435,0 0.09069,0.09069 0.09069,0.236744 0,0.326584 l -0.295071,0.295072 4.577259,4.576388 c 0.09069,0.09069 0.09069,0.236744 0,0.327434 -0.08984,0.08984 -0.235893,0.09069 -0.327434,0 l -0.830724,-0.830724 -3.458343,3.457035 1.546537,1.546536 1.736856,-1.736856 -0.950802,-0.950801 c -0.09069,-0.09069 -0.09069,-0.236744 0,-0.327435 0.09069,-0.09069 0.236744,-0.09069 0.327435,0 l 0.950801,0.950802 2.129813,-2.129813 c 0.09069,-0.09069 0.236744,-0.09069 0.326584,0 0.09069,0.09069 0.09069,0.236745 0,0.327435 L 33.806434,45.2349 36.231317,47.659784 37.673102,46.218 c 0.09069,-0.09069 0.236744,-0.09069 0.327435,0 0.09069,0.09069 0.09069,0.236744 0,0.327434 l -1.441785,1.441785 1.431538,1.431538 1.51885,-1.51885 c 0.09069,-0.09069 0.236744,-0.09069 0.327435,0 0.09069,0.09069 0.09069,0.236744 0,0.326585 l -1.51885,1.518849 0.858399,0.8584 C 46.527841,44.261938 54.947788,40.629954 59.382036,34.130097 67.323133,22.486382 59.332218,7.5464123 46.928428,8.2091517 Z"
       id="path956" /><path
       style="fill:#ffb8ff;fill-opacity:1;stroke-width:0.109003;stroke:none;stroke-opacity:1"
       d="M 15.621288,37.841904 16.71557,36.74675 14.672633,34.703813 13.17046,36.205985 c 0.838812,0.608456 1.669494,1.153035 2.450828,1.635919 z"
       id="path954" /><path
       style="fill:#ffb8ff;fill-opacity:1;stroke-width:0.109003;stroke:none;stroke-opacity:1"
       d="m 18.473682,34.98951 -2.042937,-2.042937 -1.431537,1.431539 2.042936,2.042936 z"
       id="path952" /><path
       style="fill:#ffb8ff;fill-opacity:1;stroke-width:0.109003;stroke:none;stroke-opacity:1"
       d="m 27.266747,39.881898 -2.195868,-2.195868 -1.622294,1.622294 2.195868,2.195868 z"
       id="path950" /><path
       style="fill:#ffb8ff;fill-opacity:1;stroke-width:0.109003;stroke:none;stroke-opacity:1"
       d="m 35.905682,47.986826 -2.424884,-2.424883 -1.736856,1.736855 2.424884,2.425756 z"
       id="path948" /><path
       style="fill:#ffb8ff;fill-opacity:1;stroke-width:0.109003;stroke:none;stroke-opacity:1"
       d="m 34.495399,50.051128 1.431538,1.431538 1.736856,-1.736856 -1.431538,-1.431538 z"
       id="path946" /><path
       style="fill:#ffb8ff;fill-opacity:1;stroke-width:0.109003;stroke:none;stroke-opacity:1"
       d="m 28.98311,46.408025 c 2.548821,2.349126 4.9797,5.909169 5.489289,9.820528 0.992528,-1.991487 2.55983,-3.733793 4.351624,-5.323713 l -0.831574,-0.832424 -1.736856,1.736856 0.524577,0.524578 c 0.09069,0.09069 0.09069,0.236744 0,0.327434 -0.08984,0.08984 -0.235893,0.09069 -0.326584,0 l -0.524578,-0.524577 -0.142641,0.142641 c -0.08984,0.08984 -0.235894,0.09069 -0.326585,0 -0.09069,-0.09069 -0.09069,-0.236744 0,-0.327434 l 0.139655,-0.142642 -1.431538,-1.431538 -0.895439,0.895439 c -0.08984,0.08984 -0.235894,0.09069 -0.327434,0 -0.09069,-0.09069 -0.09069,-0.236744 0,-0.327435 l 0.895439,-0.895439 -2.424884,-2.425756 -0.355961,0.355961 c -0.08984,0.08984 -0.235894,0.09069 -0.327435,0 -0.09069,-0.09069 -0.09069,-0.236744 0,-0.327434 l 0.355961,-0.355961 -1.798116,-1.798116 c -0.09069,-0.09069 -0.09069,-0.236744 0,-0.327434 0.06089,-0.06089 0.143492,-0.06557 0.220983,-0.04343 l 3.488536,-3.488537 -3.420409,-3.419101 -1.66099,1.660989 1.900796,1.900797 c 0.09069,0.09069 0.09069,0.236744 0,0.327435 -0.08984,0.08984 -0.235893,0.09069 -0.326584,0 l -1.90156,-1.900797 -1.623165,1.623166 0.257182,0.257182 c 0.09069,0.09069 0.09069,0.236744 0,0.327434 -0.08984,0.08984 -0.235894,0.09069 -0.326585,0 l -0.257182,-0.257182 -0.693619,0.69362 c -0.08984,0.08984 -0.235894,0.09069 -0.327435,0 -0.09069,-0.09069 -0.09069,-0.236744 0,-0.327435 l 0.69362,-0.693619 -2.195868,-2.195868 -0.74556,0.745559 c -0.08984,0.08984 -0.235894,0.09069 -0.327435,0 -0.09069,-0.09069 -0.09069,-0.236744 0,-0.327434 l 0.74556,-0.74556 -1.240347,-1.240347 -0.929502,0.929503 c -0.08984,0.08984 -0.235894,0.09069 -0.327435,0 -0.09069,-0.09069 -0.09069,-0.236744 0,-0.327435 l 0.929503,-0.929502 -2.424884,-2.424884 -1.431538,1.431538 1.595479,1.595479 c 0.09069,0.09069 0.09069,0.236744 0,0.326584 -0.08984,0.08984 -0.235894,0.09069 -0.327435,0 l -1.595479,-1.594606 -1.015517,1.015516 c 4.31707,2.61564 9.153321,4.809328 12.959383,8.317485 z"
       id="path944" /><path
       d="m 54.212541,21.388535 1.17647,1.176471 c 0.09069,0.09069 0.09069,0.236744 0,0.327434 -0.08984,0.08984 -0.235893,0.09069 -0.327434,0 l -1.176471,-1.176471 -2.665454,2.665454 c -0.08984,0.08984 -0.235893,0.09069 -0.326584,0 -0.09069,-0.09069 -0.09069,-0.236744 0,-0.326584 l 2.665454,-2.665454 -1.865371,-1.865372 -0.59398,0.593981 1.37998,1.37998 c 0.09069,0.09069 0.09069,0.236744 0,0.327434 -0.08984,0.08984 -0.235894,0.09069 -0.327435,0 l -1.379979,-1.379979 -1.245906,1.245906 0.93504,0.935039 c 0.09069,0.09069 0.09069,0.236744 0,0.327435 -0.08984,0.08984 -0.235894,0.09069 -0.326585,0 l -0.93504,-0.93504 -0.999765,0.999766 c -0.08984,0.08984 -0.235894,0.09069 -0.327435,0 -0.09069,-0.09069 -0.09069,-0.236744 0,-0.327435 l 0.999766,-0.999765 -0.889913,-0.889913 -1.839428,1.839428 0.103468,0.103468 c 0.09069,0.09069 0.09069,0.236744 0,0.327434 -0.09069,0.09069 -0.236743,0.08984 -0.327434,0 l -0.103468,-0.103467 -0.305296,0.305296 c -0.08984,0.08984 -0.235894,0.09069 -0.327435,0 -0.09069,-0.09069 -0.09069,-0.236744 0,-0.326585 l 0.305296,-0.305296 -1.840736,-1.840736 -1.193911,1.193912 c -0.08984,0.08984 -0.235894,0.09069 -0.327435,0 -0.09069,-0.09069 -0.09069,-0.236744 0,-0.327435 l 1.193912,-1.193911 -1.02403,-1.024032 c -0.09069,-0.09069 -0.09069,-0.236741 0,-0.327432 0.09069,-0.0907 0.236744,-0.0907 0.327435,0 l 1.022754,1.024029 1.839428,-1.839428 -1.064481,-1.064482 c -0.09069,-0.09069 -0.09069,-0.236742 0,-0.327432 0.09069,-0.0907 0.236744,-0.0907 0.327435,0 l 1.064481,1.064479 2.166873,-2.166874 -0.710221,-0.710221 c -0.09069,-0.09069 -0.09069,-0.236741 0,-0.327435 0.09069,-0.09069 0.236744,-0.09069 0.327435,0 l 2.876265,2.877138 0.726833,-0.726832 c 0.09069,-0.09069 0.236744,-0.09069 0.326585,0 0.09069,0.09069 0.09069,0.236745 0,0.326585 l -0.726833,0.726832 0.889912,0.889912 1.291033,-1.291033 c 0.09069,-0.09069 0.236744,-0.09069 0.327435,0 0.09069,0.0907 0.09069,0.236744 0,0.327435 l -1.291033,1.291033 1.86537,1.865372 1.601802,-1.601802 c 0.09069,-0.09069 0.236744,-0.09069 0.326584,0 0.09069,0.09069 0.09069,0.236745 0,0.327435 z m -5.012837,-0.02597 1.245906,-1.245906 -0.889912,-0.88991 -1.245906,1.245904 z m -5.223648,-0.890762 1.840736,1.840736 1.839428,-1.839428 -1.840736,-1.840736 z m 4.333311,-4.332874 -2.166874,2.166873 1.840736,1.840735 1.245906,-1.245907 -1.001466,-1.001464 c -0.09069,-0.09069 -0.09069,-0.236745 0,-0.327435 0.09069,-0.09069 0.236744,-0.09069 0.327434,0 l 1.001467,1.001467 0.59398,-0.593981 z m 2.166873,2.166873 -0.59398,0.593978 0.889913,0.889914 0.59398,-0.59398 z"
       id="path187"
       style="fill:#000000;fill-opacity:1;stroke-width:0.109003" /><path
       d="m 14.739234,32.018521 -1.40385,-1.403852 -2.551764,2.551764 c -0.08984,0.08984 -0.235894,0.09069 -0.327434,0 -0.09069,-0.09069 -0.09069,-0.236744 0,-0.326584 l 2.551764,-2.551764 -2.120004,-2.120002 -1.125349,1.125348 1.47961,1.480917 c 0.09069,0.09069 0.09069,0.236744 0,0.327435 -0.08984,0.08984 -0.235895,0.09069 -0.327435,0 L 9.4351623,29.620866 8.9263377,30.129692 c -0.089844,0.08984 -0.2358948,0.09069 -0.3274348,0 -0.090693,-0.09069 -0.090693,-0.236744 0,-0.327434 L 9.1077275,29.293431 7.0916079,27.277309 c -0.090693,-0.09069 -0.090693,-0.236744 0,-0.327434 0.090693,-0.09069 0.2367445,-0.09069 0.3274347,0 l 0.2580305,0.258457 1.3272216,-1.327222 c 0.090696,-0.09069 0.2367445,-0.09069 0.3274347,0 0.09069,0.09069 0.090693,0.236744 0,0.327434 l -1.3272215,1.327223 1.4315381,1.431538 1.125349,-1.125349 -1.1883511,-1.188352 c -0.090696,-0.09069 -0.090696,-0.236744 0,-0.327434 0.090693,-0.09069 0.2367414,-0.09069 0.3274347,0 l 3.6346004,3.6346 0.104319,-0.104319 c 0.09069,-0.09069 0.236742,-0.09069 0.327435,0 0.09069,0.09069 0.09069,0.236744 0,0.327435 l -0.10432,0.104319 1.40385,1.403851 c 0.09069,0.09069 0.09069,0.236744 0,0.327435 -0.09027,0.08899 -0.236318,0.08984 -0.327008,-8.65e-4 z"
       id="path189"
       style="fill:#000000;fill-opacity:1;stroke-width:0.109003" /><path
       d="M 7.8567759,24.908246 7.1031176,24.154587 6.539788,24.717915 c -0.089841,0.08984 -0.2358917,0.09069 -0.3274317,0 -0.090696,-0.09069 -0.090696,-0.236743 0,-0.327434 l 0.5633265,-0.563328 -0.9490915,-0.94909 c -0.090693,-0.09069 -0.090693,-0.236744 0,-0.327435 0.089844,-0.08984 0.2358948,-0.09154 0.3274347,0 l 0.9490916,0.94909 0.6778673,-0.677868 c 0.090696,-0.09069 0.2367445,-0.09069 0.3274348,0 0.090693,0.09069 0.090696,0.236744 0,0.327434 l -0.6778674,0.677869 0.7536584,0.753658 c 0.090693,0.09069 0.090693,0.236745 0,0.327435 -0.089417,0.08942 -0.2367445,0.09069 -0.3274348,0 z"
       id="path191"
       style="fill:#000000;fill-opacity:1;stroke-width:0.109003" /></g></svg>
